<svg width="512" height="512" viewBox="0 0 512 512" fill="none" xmlns="http://www.w3.org/2000/svg">
<path d="M472 256C472 136.706 375.294 40 256 40C136.706 40 40 136.706 40 256C40 375.294 136.706 472 256 472C375.294 472 472 375.294 472 256ZM512 256C512 397.385 397.385 512 256 512C114.615 512 0 397.385 0 256C0 114.615 114.615 0 256 0C397.385 0 512 114.615 512 256Z" fill="black"/>
<path d="M116 126V306C116 349.946 152.054 386 196 386H316C359.946 386 396 349.946 396 306V206C396 173.1 368.9 146 336 146C320.63 146 306.666 152.075 296 161.732C285.334 152.075 271.37 146 256 146C223.1 146 196 173.1 196 206V306H236V206C236 194.717 244.717 186 256 186C267.283 186 276 194.717 276 206V306H316V206C316 194.717 324.717 186 336 186C347.283 186 356 194.717 356 206V306C356 328.328 338.328 346 316 346H196C173.672 346 156 328.328 156 306V126H116Z" fill="black"/>
<defs>
<clipPath id="clip0_1_2">
<rect width="512" height="512" fill="white"/>
</clipPath>
</defs>
</svg>
