<?xml version="1.0" ?><svg enable-background="new 0 0 515.91 728.5" height="512" id="Layer_1" version="1.1" viewBox="0 0 512.00003 512" width="512" xml:space="preserve" xmlns="http://www.w3.org/2000/svg" xmlns:cc="http://creativecommons.org/ns#" xmlns:dc="http://purl.org/dc/elements/1.1/" xmlns:inkscape="http://www.inkscape.org/namespaces/inkscape" xmlns:ns="http://ns.adobe.com/AdobeIllustrator/10.0/" xmlns:rdf="http://www.w3.org/1999/02/22-rdf-syntax-ns#" xmlns:sodipodi="http://sodipodi.sourceforge.net/DTD/sodipodi-0.dtd" xmlns:svg="http://www.w3.org/2000/svg"><defs id="defs7"/><g id="g6552" transform="translate(112.70969,-216.82712)"><path d="m -733.62329,72.267944 c 0,203.804876 -165.21649,369.021366 -369.02141,369.021366 -203.8048,0 -369.0213,-165.21649 -369.0213,-369.021366 0,-203.804874 165.2165,-369.021364 369.0213,-369.021364 203.80492,0 369.02141,165.21649 369.02141,369.021364 z" id="path5036" style="fill:#000000;fill-opacity:1;fill-rule:nonzero;stroke:none" transform="matrix(0.69372682,0,0,0.69372682,908.22449,422.69291)"/><g id="g22760" style="fill:#ffffff;fill-opacity:1" transform="matrix(1.8591856,0,0,1.8591856,-1190.0933,-1543.101)"><path d="m 809.86207,1028.4952 c -0.88378,-2.6354 -3.66327,-7.3652 -6.15821,-10.5131 -2.5006,-3.1516 -6.5709,-6.8818 -9.04323,-8.2895 -2.47422,-1.4133 -13.78533,1.6781 -19.50636,4.2946 l -4.17583,1.9061 c -5.72104,2.6183 -10.48197,4.7986 -10.57807,4.8438 -0.0933,0.049 -0.76601,0 -1.28799,-0.2158 -0.52386,-0.2251 -6.88936,-1.792 -13.01837,-3.2251 l -10.97286,-2.5637 c -6.13089,-1.4331 -13.19645,-2.7984 -15.70647,-3.0349 -2.5119,-0.2383 -13.22377,1.5556 -19.35277,2.9623 l -11.74641,2.6994 c -6.13277,1.4058 -11.5768,2.6853 -12.09124,2.8417 -0.5201,0.1526 -1.96732,0.6803 -2.06531,0.6275 -0.097,-0.056 -5.0417,-2.3178 -10.76086,-4.9362 l -4.17111,-1.9061 c -5.72575,-2.6164 -12.78659,-4.9305 -15.69611,-5.1444 -2.90951,-0.2138 -10.35665,5.9877 -12.85442,9.1394 -2.50437,3.1469 -5.27632,7.8815 -6.16482,10.5159 -0.88849,2.6353 3.93086,13.0174 7.4528,18.2325 l 7.19841,10.677 c 3.51629,5.215 5.45533,11.2442 4.3002,13.3933 -1.15231,2.1577 -2.72767,5.9896 -3.50404,8.5194 -0.77732,2.5345 0.1206,13.6449 1.16926,19.8493 l 2.24904,13.2426 c 1.05055,6.2035 3.02446,13.3548 4.38499,15.8921 1.36431,2.5392 12.15532,7.0213 18.26548,8.5345 l 2.73332,0.6774 c 6.10357,1.5141 14.11321,6.9299 17.7925,12.0328 l 4.9343,6.8272 c 3.6774,5.1048 8.47791,10.7072 10.6657,12.4521 2.17931,1.744 11.40156,3.1715 15.03562,3.1715 3.64066,0 8.81333,-0.6143 11.50708,-1.3643 2.69092,-0.7491 10.51495,-9.1535 14.19235,-14.2593 l 4.85327,-6.7207 c 3.68118,-5.0982 11.68234,-10.5281 17.78779,-12.0611 l 2.84544,-0.7151 c 6.10169,-1.533 13.07962,-4.0571 15.50201,-5.6089 2.42428,-1.5537 6.07436,-12.6557 7.12774,-18.8591 l 2.24432,-13.2398 c 1.04773,-6.2072 1.85048,-13.4461 1.78264,-16.0984 -0.0669,-2.6457 -2.96322,-10.1155 -4.11741,-12.2731 -1.15137,-2.1501 0.78579,-8.1783 4.30114,-13.3934 l 7.19841,-10.677 c 3.51817,-5.2132 8.33752,-15.5953 7.44808,-18.2334 z M 638.769,1040.6175 c -3.13093,-4.6375 -5.82185,-8.7803 -5.9858,-9.1977 0,0 0,0 0,-0.4806 0,-0.602 0,-0.602 0,-0.602 0.24026,-0.5493 2.48647,-3.5719 4.98518,-6.7217 2.50437,-3.1469 4.95032,-5.9142 5.43932,-6.1525 0.48712,-0.2356 6.5285,2.1519 12.25048,4.7628 l 0.89415,0.4108 c 5.72197,2.6155 10.31991,4.8881 10.21909,5.0511 -0.1027,0.163 -2.7776,5.1303 -5.74553,10.6808 l -5.03229,9.4022 c -2.96793,5.5496 -13.89462,-2.511 -17.0246,-7.1532 z m 147.33174,42.9671 c 0.0688,1.5339 -0.73774,7.8674 -1.78641,14.0737 l -2.24903,13.2435 c -1.04867,6.2007 -2.28766,11.916 -2.75876,12.6933 -0.45979,0.7764 -5.75966,2.6467 -10.30484,3.7896 -4.55082,1.1429 -8.11987,1.3304 -7.94556,0.424 0.1743,-0.913 -2.46197,-7.3011 -5.86143,-12.2524 -3.40511,-4.9475 -6.18648,-8.8548 -6.18177,-8.6824 0.005,0.1715 0.78014,4.2362 1.65073,8.64 0.86777,4.4095 1.49999,9.1158 1.40671,10.4603 -0.0961,1.3455 -1.63095,4.4604 -2.13126,5.1595 -0.50502,0.6982 -2.76818,3.8357 -5.03605,6.9713 -2.26882,3.1375 -6.80174,9.4296 -10.08719,13.9785 -3.28074,4.547 -6.74709,8.8557 -7.70437,9.5643 -0.95633,0.7076 -6.28447,1.2917 -9.92513,1.2917 -3.63312,0 -7.53854,-0.2949 -8.67483,-0.6558 -1.13064,-0.3589 -5.70031,-5.6871 -9.01402,-10.2803 -3.3156,-4.5942 -7.87491,-10.9116 -10.12865,-14.0388 -2.25845,-3.1271 -4.49146,-6.226 -4.9767,-6.8912 -0.47486,-0.6643 -1.25877,-2.2415 -1.73553,-3.5012 -0.47392,-1.2626 0.19127,-7.6488 1.05621,-12.0583 0.86871,-4.4038 1.59703,-8.15 1.62152,-8.3281 0.0254,-0.1762 -2.74274,3.4221 -6.14691,8.3714 -3.40511,4.9522 -6.13654,9.7283 -6.0753,10.6167 0.0584,0.8895 -3.20442,2.2934 -7.74582,1.1655 -4.54046,-1.1259 -8.86139,-2.477 -9.59819,-2.9961 -0.73586,-0.5192 -2.40732,-7.2399 -3.4607,-13.4405 l -2.24337,-13.2436 c -1.0515,-6.2062 -1.8552,-12.5397 -1.78736,-14.0736 0.0688,-1.5405 1.75909,-5.8624 2.59199,-7.4104 0.82726,-1.5509 3.93934,-7.3614 6.90821,-12.9091 l 11.03787,-20.6238 c 2.96699,-5.5448 6.1422,-10.8523 7.05519,-11.7973 0.91393,-0.9422 3.41924,-2.1152 3.53419,-2.1416 0.11872,-0.026 5.22638,-1.2013 11.3601,-2.6061 l 11.32901,-2.6033 c 6.12806,-1.4086 12.58873,-2.6749 14.35064,-2.8163 1.76285,-0.1403 10.48385,1.4482 16.6138,2.8794 l 10.56583,2.4676 c 6.12807,1.4331 11.23385,2.6278 11.34408,2.6561 0.11212,0.024 1.14666,0.5681 2.29708,1.206 1.15232,0.6388 5.33097,7.2088 8.29984,12.7546 l 11.03881,20.6238 c 2.96605,5.5467 6.08001,11.3572 6.90821,12.909 0.83102,1.5481 2.52509,5.8699 2.58916,7.4104 z m 15.49542,-52.1648 c -0.16395,0.4174 -2.86146,4.5602 -5.98768,9.1977 -3.12622,4.6422 -14.05291,12.7028 -17.01895,7.1532 l -5.03606,-9.4022 c -2.97264,-5.5505 -5.47512,-10.2229 -5.56651,-10.3859 -0.097,-0.162 4.31998,-2.7305 10.04196,-5.346 l 0.89038,-0.4108 c 5.71915,-2.6109 10.93422,-4.7628 11.58528,-4.7826 0.65106,-0.014 3.60297,3.0254 6.10451,6.1723 2.49495,3.1498 4.74492,6.1724 4.98707,6.7217 0,0 0,0 0,0.602 0,0.4806 0,0.4806 0,0.4806 z" id="path2861" style="fill:#ffffff;fill-opacity:1"/><path d="m 701.19914,1115.8587 c -1.35017,-2.7041 0.0151,-4.9229 3.04425,-4.9229 h 25.88976 c 3.02446,0 4.39347,2.2188 3.04519,4.9229 l -13.52999,15.3815 c -1.35394,2.706 -3.56151,2.706 -4.91922,0 l -13.52999,-15.3815 z" id="path2863" style="fill:#ffffff;fill-opacity:1"/><path d="m 717.18827,1148.8452 c 0.004,0 1.82786,1.6724 4.0637,3.715 l 8.79167,8.0351 c 2.23961,2.038 4.68273,2.2425 5.43084,0.4457 0.74904,-1.7958 -0.67933,-4.6564 -3.18087,-6.3627 l -8.32716,-5.6796 c -2.5006,-1.7063 -4.54046,-3.1573 -4.53104,-3.2251 0.008,-0.064 0.0188,-2.7286 0.0188,-5.7559 v -15.5096 c 0,-3.0272 -0.45603,-6.5247 -1.01475,-7.7703 0,0 0,0 -1.25124,0 -1.24936,0 -1.24936,0 -1.24936,0 -0.55872,1.2456 -1.01475,4.7421 -1.01475,7.7703 v 15.5096 c 0,3.0273 0.006,5.5618 0.008,5.6334 0.007,0.066 -2.01819,1.6413 -4.52067,3.3476 l -8.32716,5.6796 c -2.49966,1.7063 -3.93463,4.5669 -3.18181,6.3627 0.75376,1.7977 3.19123,1.5923 5.4299,-0.4457 l 8.79354,-8.0351 c 2.23584,-2.0426 4.06183,-3.715 4.06183,-3.715 z" id="path2865" style="fill:#ffffff;fill-opacity:1"/><path d="m 669.02868,1075.168 c -3.25342,0.094 -3.27886,0.5446 -0.0594,1.0053 l 27.00061,3.8555 c 3.21573,0.4607 5.60421,3.4824 5.30176,6.715 l -3.44657,12.0508 c -0.29114,3.2327 0.71796,5.9707 2.25751,6.0838 1.53956,0.113 2.80776,0.098 2.81718,-0.034 0.005,-0.129 0.13191,-2.8906 0.26759,-6.1365 l 2.82,-11.3102 c 0.14133,-3.2468 0.32506,-7.563 0.41268,-9.5925 0.0933,-2.0295 -0.76601,-3.667 -1.9023,-3.6331 -1.13629,0.033 -4.72513,0.1309 -7.97383,0.2233 l -27.49527,0.7726 z" id="path2869" style="fill:#ffffff;fill-opacity:1"/><path d="m 737.85636,1074.3963 c -3.24965,-0.092 -6.83943,-0.1903 -7.96913,-0.2233 -1.14194,-0.034 -2.00123,1.6036 -1.91455,3.6331 0.0876,2.0295 0.27701,6.3457 0.41646,9.5926 l 2.81717,11.3101 c 0.14133,3.245 0.26288,6.0066 0.27795,6.1366 0.006,0.1319 1.27197,0.146 2.81058,0.034 1.5405,-0.1121 2.55336,-2.8502 2.25186,-6.0838 l -3.44091,-12.0507 c -0.29868,-3.2327 2.08791,-6.2543 5.30175,-6.7151 l 27.00062,-3.8555 c 3.21384,-0.4607 3.19499,-0.9111 -0.0584,-1.0053 l -27.49338,-0.7726 z" id="path2871" style="fill:#ffffff;fill-opacity:1"/><circle cx="268.66599" cy="249.082" d="m 272.63999,249.082 c 0,2.19478 -1.77923,3.974 -3.974,3.974 -2.19478,0 -3.974,-1.77922 -3.974,-3.974 0,-2.19478 1.77922,-3.974 3.974,-3.974 2.19477,0 3.974,1.77922 3.974,3.974 z" id="circle2875" r="3.974" style="fill:#ffffff;fill-opacity:1" transform="matrix(0.94219956,0,0,0.94219956,436.41374,844.56369)"/><path d="m 748.57765,1079.2486 c 0,2.0719 -1.68277,3.7481 -3.74902,3.7481 -2.07472,0 -3.74995,-1.6762 -3.74995,-3.7481 0,-2.0681 1.67523,-3.7443 3.74995,-3.7443 2.06625,-9e-4 3.74902,1.6762 3.74902,3.7443 z" id="path2877" style="fill:#ffffff;fill-opacity:1"/><g id="g2883" style="fill:#ffffff;fill-opacity:1" transform="matrix(0.94219956,0,0,0.94219956,436.41374,844.56369)"><g id="g2885" style="fill:#ffffff;fill-opacity:1"><path d="m 282.442,299.431 c -22.72,6.003 -41.634,16.871 -60.114,31.306" id="path2887" style="fill:#ffffff;fill-opacity:1"/><path d="m 282.2,298.054 c -21.88,5.292 -43.854,16.737 -60.637,31.78 -1.164,1.042 0.289,2.639 1.532,1.807 9.16,-6.125 17.966,-12.6 27.651,-17.915 10.139,-5.564 20.881,-9.605 31.939,-12.917 1.686,-0.505 1.297,-3.186 -0.485,-2.755 l 0,0 z" id="path2889" style="fill:#ffffff;fill-opacity:1"/></g></g><g id="g2891" style="fill:#ffffff;fill-opacity:1" transform="matrix(0.94219956,0,0,0.94219956,436.41374,844.56369)"><g id="g2893" style="fill:#ffffff;fill-opacity:1"><path d="m 282.968,306.988 c -16.705,1.636 -33.563,20.751 -43.912,33.257" id="path2895" style="fill:#ffffff;fill-opacity:1"/><path d="m 282.77,305.868 c -9.444,0.723 -17.431,6.122 -24.537,12.016 -7.479,6.204 -14.603,13.695 -20.01,21.778 -0.624,0.933 0.641,2.192 1.491,1.359 12.808,-12.552 24.483,-29.631 43.451,-32.913 1.472,-0.254 1.04,-2.351 -0.395,-2.24 l 0,0 z" id="path2897" style="fill:#ffffff;fill-opacity:1"/></g></g><g id="g2899" style="fill:#ffffff;fill-opacity:1" transform="matrix(0.94219956,0,0,0.94219956,436.41374,844.56369)"><g id="g2901" style="fill:#ffffff;fill-opacity:1"><path d="m 284.562,314.588 c -16.175,4.496 -29.483,26.229 -37.521,40.328" id="path2903" style="fill:#ffffff;fill-opacity:1"/><path d="m 284.364,313.467 c -8.867,2.251 -15.541,8.416 -21.442,15.134 -6.738,7.671 -12.65,16.651 -16.835,25.961 -0.484,1.078 1.134,1.858 1.787,0.937 10.368,-14.624 19.083,-33.416 37.176,-39.883 1.208,-0.432 0.551,-2.463 -0.686,-2.149 l 0,0 z" id="path2905" style="fill:#ffffff;fill-opacity:1"/></g></g><g id="g2909" style="fill:#ffffff;fill-opacity:1" transform="matrix(0.94219956,0,0,0.94219956,436.41374,844.56369)"><g id="g2911" style="fill:#ffffff;fill-opacity:1"><path d="m 313.56,299.431 c 22.718,6.003 41.628,16.871 60.104,31.306" id="path2913" style="fill:#ffffff;fill-opacity:1"/><path d="m 313.074,300.743 c 11.08,3.32 21.741,7.38 31.951,12.85 9.841,5.271 18.705,11.93 27.959,18.114 1.305,0.872 2.469,-0.947 1.359,-1.94 -16.666,-14.924 -38.57,-26.389 -60.299,-31.647 -1.712,-0.415 -2.727,2.097 -0.97,2.623 l 0,0 z" id="path2915" style="fill:#ffffff;fill-opacity:1"/></g></g><g id="g2917" style="fill:#ffffff;fill-opacity:1" transform="matrix(0.94219956,0,0,0.94219956,436.41374,844.56369)"><g id="g2919" style="fill:#ffffff;fill-opacity:1"><path d="m 313.03,306.988 c 16.707,1.636 33.564,20.751 43.913,33.257" id="path2921" style="fill:#ffffff;fill-opacity:1"/><path d="m 312.923,308.121 c 18.863,3.261 30.51,20.297 43.245,32.782 0.946,0.928 2.279,-0.229 1.551,-1.316 -5.477,-8.176 -12.608,-15.396 -20.064,-21.789 -6.961,-5.969 -15.178,-11.229 -24.517,-11.942 -1.482,-0.114 -1.644,2.018 -0.215,2.265 l 0,0 z" id="path2923" style="fill:#ffffff;fill-opacity:1"/></g></g><g id="g2925" style="fill:#ffffff;fill-opacity:1" transform="matrix(0.94219956,0,0,0.94219956,436.41374,844.56369)"><g id="g2927" style="fill:#ffffff;fill-opacity:1"><path d="m 311.435,314.588 c 16.172,4.496 29.49,26.229 37.524,40.328" id="path2929" style="fill:#ffffff;fill-opacity:1"/><path d="m 311.04,315.655 c 18.046,6.457 26.813,25.33 37.144,39.919 0.686,0.968 2.152,-0.075 1.694,-1.095 -4.017,-8.945 -9.716,-17.315 -15.94,-24.875 -5.824,-7.073 -13.024,-13.776 -22.108,-16.083 -1.392,-0.354 -2.199,1.63 -0.79,2.134 l 0,0 z" id="path2931" style="fill:#ffffff;fill-opacity:1"/></g></g><ellipse cx="260.37" cy="205.96201" d="m 266.795,205.96201 c 0,4.43484 -2.87658,8.03 -6.425,8.03 -3.54843,0 -6.42501,-3.59516 -6.42501,-8.03 0,-4.43485 2.87658,-8.03 6.42501,-8.03 3.54842,0 6.425,3.59515 6.425,8.03 z" id="ellipse2937" rx="6.4250002" ry="8.0299997" style="fill:#ffffff;fill-opacity:1" transform="matrix(0.94219956,0,0,0.94219956,436.41374,844.56369)"/><path d="m 679.62371,1053.1554 c 0,2.7879 -2.25751,5.0436 -5.03982,5.0436 -2.78797,0 -5.04548,-2.2557 -5.04548,-5.0436 0,-2.7852 2.25751,-5.0436 5.04548,-5.0436 2.78231,9e-4 5.03982,2.2584 5.03982,5.0436 z" id="path2939" style="fill:#ffffff;fill-opacity:1"/><path d="m 702.60302,1036.7178 c -1.01475,3.1855 -3.12622,5.3611 -4.72136,4.8542 -1.59044,-0.5079 -2.06342,-3.4984 -1.04679,-6.6859 1.01004,-3.1865 3.12245,-5.3592 4.71383,-4.8504 1.59326,0.5059 2.06436,3.5012 1.05432,6.6821 z" id="path2941" style="fill:#ffffff;fill-opacity:1"/><path d="m 694.98345,1054.71 c 0,1.6752 -1.57724,3.0282 -3.53136,3.0282 -1.94942,0 -3.52948,-1.353 -3.52948,-3.0282 0,-1.6715 1.57912,-3.0254 3.52948,-3.0254 1.95412,0 3.53136,1.3539 3.53136,3.0254 z" id="path2943" style="fill:#ffffff;fill-opacity:1"/><path d="m 769.40591,1112.4715 c -1.24276,2.4931 -0.23367,5.5194 2.26128,6.7631 2.49306,1.2447 5.52129,0.2328 6.76405,-2.2593 1.2437,-2.4959 0.22801,-5.527 -2.26222,-6.7641 -2.49024,-1.2484 -5.52035,-0.2337 -6.76311,2.2603 z" id="path2947" style="fill:#ffffff;fill-opacity:1"/><path d="m 770.58554,1099.586 c -0.51444,3.3034 0.40421,6.1922 2.05306,6.4494 1.65732,0.2563 3.40887,-2.2104 3.93085,-5.5119 0.51444,-3.3033 -0.4042,-6.1912 -2.06153,-6.4465 -1.64697,-0.2601 -3.40699,2.2066 -3.92238,5.509 z" id="path2949" style="fill:#ffffff;fill-opacity:1"/><path d="m 761.30488,1107.2574 c -0.74811,1.4962 0.0631,3.4155 1.80619,4.2842 1.74684,0.8715 3.7688,0.3646 4.51031,-1.1307 0.74999,-1.4962 -0.0622,-3.4145 -1.80525,-4.2832 -1.74401,-0.8725 -3.76786,-0.3646 -4.51125,1.1297 z" id="path2951" style="fill:#ffffff;fill-opacity:1"/></g></g></svg>